<svg width="306" height="306" viewBox="0 0 306 306" fill="none" xmlns="http://www.w3.org/2000/svg">
<circle cx="153.003" cy="153.003" r="150.904" fill="#D0D3D9"/>
<path d="M271.002 247.323C258.618 262.901 243.275 275.876 225.856 285.5C208.437 295.124 189.287 301.207 169.507 303.399C158.457 304.619 147.307 304.619 136.257 303.399C116.455 301.233 97.2782 295.164 79.8355 285.542C62.3929 275.921 47.0299 262.938 34.6343 247.344C55.6891 232.492 78.9482 221.041 103.56 213.413C135.707 203.396 170.142 203.396 202.289 213.413C226.819 221.07 250.003 232.511 271.002 247.323Z" fill="#C4EAF5"/>
<path d="M184.397 223.945L169.506 303.4C168.272 303.549 167.038 303.656 165.804 303.741C161.55 304.124 157.238 304.315 152.87 304.315C147.996 304.321 143.126 304.08 138.277 303.592C137.596 303.592 136.936 303.592 136.149 303.4L119.599 223.945C135.149 219.328 168.804 219.328 184.397 223.945Z" fill="#4E5666"/>
<path d="M152.808 43.5908C120.311 43.5908 93.9663 73.7831 93.9663 111.027C93.9663 130.314 97.175 157.709 108.5 170C119.045 181.444 137.139 178.464 152.808 178.464C168.596 178.464 187.932 180.599 198.5 169C209.685 156.724 211.65 130.177 211.65 111.027C211.65 73.7831 185.306 43.5908 152.808 43.5908Z" fill="white"/>
<path d="M152.808 179.586C137.769 179.586 119.52 182.507 109 172.008C96.3942 159.428 92.9238 131.628 92.9238 111.022C92.9238 70.9008 97.1785 42.501 152.851 42.501C208.523 42.501 212.778 70.9008 212.778 111.022C212.752 133.283 210.789 159.602 196.371 172.136C186.305 180.887 166.391 179.586 152.808 179.586ZM152.808 44.7134C99.0931 44.6921 95.0512 70.9646 95.0512 111.022C95.0512 131.05 98.287 158.313 110.5 170.5C120.639 180.617 138.363 177.459 152.808 177.459C165.878 177.459 185.315 178.943 195 170.5C208.915 158.371 210.544 132.669 210.544 111.107C210.544 70.9646 206.523 44.6921 152.808 44.6921V44.7134Z" fill="#4E5666"/>
<path d="M119.644 223.945C119.644 223.945 127.706 241.517 151.234 241.517C157.811 241.714 164.327 240.198 170.141 237.118C175.955 234.037 180.869 229.498 184.399 223.945L181.251 154.935H122.707L119.644 223.945Z" fill="white"/>
<path d="M151.233 242.624C127.28 242.624 118.728 224.584 118.643 224.414C118.603 224.246 118.603 224.071 118.643 223.904L121.791 154.893C121.802 154.613 121.921 154.348 122.124 154.153C122.326 153.959 122.596 153.85 122.876 153.851H181.271C181.554 153.85 181.826 153.958 182.032 154.152C182.237 154.346 182.361 154.611 182.377 154.893L185.505 223.904C185.523 224.104 185.479 224.305 185.377 224.478C181.724 230.181 176.663 234.847 170.683 238.025C164.702 241.203 158.004 242.787 151.233 242.624ZM120.749 223.712C121.812 225.839 129.896 240.412 151.233 240.412C157.534 240.548 163.767 239.084 169.348 236.156C174.928 233.228 179.675 228.932 183.143 223.67L180.144 156.042H123.833L120.749 223.712Z" fill="#4E5666"/>
<path d="M122.707 184.48C127.224 191.01 133.291 196.317 140.364 199.925C151.937 206.307 169.232 213.54 183.251 211.391L180.953 182.204C170.672 183.483 160.276 183.547 149.979 182.395C140.917 181.608 131.578 180.736 123.26 177.226C121.899 176.609 120.984 181.715 122.707 184.48Z" fill="#4E5666"/>
<path d="M178.018 212.839C163.893 212.839 148.47 205.563 139.961 200.862C132.709 197.191 126.504 191.746 121.921 185.034C121.183 183.789 120.783 182.372 120.761 180.924C120.738 179.477 121.094 178.048 121.793 176.78C122.031 176.459 122.375 176.231 122.764 176.138C123.153 176.044 123.562 176.091 123.92 176.27C132.217 179.758 141.811 180.524 150.278 181.354C160.497 182.501 170.815 182.437 181.018 181.163C181.16 181.143 181.305 181.151 181.444 181.188C181.582 181.224 181.712 181.288 181.826 181.375C181.939 181.465 182.032 181.578 182.098 181.706C182.164 181.835 182.202 181.976 182.209 182.12L184.4 211.307C184.42 211.573 184.339 211.836 184.173 212.045C184.008 212.253 183.77 212.392 183.507 212.434C181.69 212.707 179.856 212.842 178.018 212.839ZM123.282 178.354C122.962 179.258 122.834 180.219 122.907 181.176C122.981 182.132 123.253 183.062 123.708 183.907C128.088 190.32 134.024 195.517 140.96 199.011C150.172 204.095 167.573 212.243 182.209 210.477L180.082 183.396C170.087 184.535 159.996 184.535 150.002 183.396C141.428 182.715 131.792 181.865 123.24 178.354H123.282Z" fill="#4E5666"/>
<path d="M150.363 189.076H155.17C160.575 189.076 165.927 188.011 170.92 185.942C175.913 183.873 180.449 180.841 184.27 177.018C188.091 173.195 191.121 168.657 193.187 163.663C195.254 158.669 196.316 153.317 196.313 147.912V82.752C196.313 82.752 182.017 86.8577 152.766 86.8577C123.516 86.8577 109.199 82.752 109.199 82.752V147.912C109.199 158.829 113.536 169.3 121.255 177.019C128.975 184.739 139.445 189.076 150.363 189.076Z" fill="white"/>
<path d="M196.355 82.7486V147.909C196.358 153.313 195.296 158.666 193.229 163.66C191.163 168.654 188.133 173.192 184.312 177.015C180.492 180.837 175.955 183.87 170.962 185.939C165.969 188.008 160.617 189.073 155.213 189.073H150.362C139.445 189.073 128.975 184.736 121.255 177.016C113.535 169.296 109.199 158.826 109.199 147.909V82.7486C109.199 82.7486 123.515 86.8544 152.766 86.8544C182.017 86.8544 196.313 82.7486 196.313 82.7486H196.355ZM109.199 80.6213C108.725 80.6226 108.264 80.7713 107.88 81.0468C107.603 81.249 107.379 81.5152 107.227 81.8226C107.075 82.1301 107 82.4696 107.007 82.8125V147.973C107.036 159.456 111.614 170.461 119.741 178.575C127.867 186.69 138.878 191.253 150.362 191.264H155.17C166.663 191.247 177.681 186.674 185.808 178.547C193.935 170.42 198.508 159.402 198.525 147.909V82.7486C198.521 82.4078 198.441 82.0722 198.29 81.7666C198.139 81.461 197.921 81.1932 197.653 80.983C197.26 80.7071 196.792 80.5586 196.313 80.5575C196.115 80.5264 195.914 80.5264 195.717 80.5575C195.568 80.5575 181.272 84.5781 152.766 84.5781C124.26 84.5781 109.943 80.6851 109.943 80.6426C109.739 80.6126 109.531 80.6126 109.326 80.6426L109.199 80.6213Z" fill="#4E5666"/>
<path d="M224.478 287.036H224.329C224.186 287.018 224.048 286.971 223.923 286.899C223.798 286.827 223.689 286.731 223.602 286.616C223.515 286.501 223.451 286.37 223.415 286.23C223.38 286.09 223.372 285.945 223.393 285.802L228.605 246.51C228.647 246.222 228.799 245.962 229.029 245.784C229.259 245.605 229.549 245.523 229.839 245.553C230.129 245.59 230.393 245.741 230.572 245.972C230.752 246.204 230.832 246.496 230.796 246.787L225.563 286.1C225.527 286.361 225.396 286.6 225.197 286.773C224.997 286.945 224.742 287.039 224.478 287.036Z" fill="#4E5666"/>
<path d="M81.1392 287.042C80.8736 287.039 80.6178 286.941 80.4185 286.765C80.2193 286.589 80.09 286.348 80.0543 286.084L74.8423 246.771C74.8058 246.484 74.8834 246.194 75.0584 245.963C75.2334 245.733 75.4919 245.58 75.7784 245.537C76.0678 245.507 76.3579 245.589 76.5878 245.768C76.8178 245.946 76.9699 246.207 77.0122 246.495L82.288 285.787C82.3241 286.077 82.2437 286.37 82.0642 286.601C81.8848 286.833 81.621 286.983 81.3307 287.02L81.1392 287.042Z" fill="#4E5666"/>
</svg>
