<svg width="20" height="20" viewBox="0 0 20 20" fill="none" xmlns="http://www.w3.org/2000/svg">
<g clip-path="url(#clip0_2016_2035)">
<path d="M10.3222 7.80883C10.4597 7.39633 11.0422 7.39633 11.1797 7.80883L11.986 10.2301C12.1634 10.7623 12.4624 11.2459 12.8593 11.6426C13.2561 12.0392 13.7399 12.3379 14.2722 12.5151L16.6922 13.3213C17.1047 13.4588 17.1047 14.0413 16.6922 14.1788L14.271 14.9851C13.7387 15.1625 13.2551 15.4615 12.8585 15.8584C12.4619 16.2552 12.1632 16.739 11.986 17.2713L11.1797 19.6913C11.1501 19.7817 11.0927 19.8603 11.0157 19.9161C10.9387 19.9718 10.8461 20.0019 10.751 20.0019C10.6559 20.0019 10.5633 19.9718 10.4863 19.9161C10.4093 19.8603 10.3519 19.7817 10.3222 19.6913L9.51598 17.2701C9.33864 16.738 9.03984 16.2545 8.64323 15.8578C8.24662 15.4612 7.7631 15.1624 7.23098 14.9851L4.80973 14.1788C4.71941 14.1492 4.64075 14.0918 4.58499 14.0148C4.52922 13.9378 4.4992 13.8451 4.4992 13.7501C4.4992 13.655 4.52922 13.5624 4.58499 13.4854C4.64075 13.4084 4.71941 13.351 4.80973 13.3213L7.23098 12.5151C7.7631 12.3377 8.24662 12.0389 8.64323 11.6423C9.03984 11.2457 9.33864 10.7622 9.51598 10.2301L10.3222 7.80883ZM5.49348 1.43508C5.51141 1.38095 5.54594 1.33384 5.59216 1.30046C5.63839 1.26707 5.69396 1.2491 5.75098 1.2491C5.80801 1.2491 5.86358 1.26707 5.9098 1.30046C5.95603 1.33384 5.99056 1.38095 6.00848 1.43508L6.49223 2.88758C6.70848 3.53508 7.21598 4.04258 7.86348 4.25883L9.31598 4.74258C9.37012 4.76051 9.41722 4.79504 9.45061 4.84126C9.484 4.88749 9.50197 4.94306 9.50197 5.00008C9.50197 5.0571 9.484 5.11268 9.45061 5.1589C9.41722 5.20513 9.37012 5.23966 9.31598 5.25758L7.86348 5.74133C7.54395 5.84738 7.25359 6.02657 7.01553 6.26463C6.77747 6.50269 6.59828 6.79305 6.49223 7.11258L6.00848 8.56508C5.99056 8.61922 5.95603 8.66632 5.9098 8.69971C5.86358 8.7331 5.80801 8.75107 5.75098 8.75107C5.69396 8.75107 5.63839 8.7331 5.59216 8.69971C5.54594 8.66632 5.51141 8.61922 5.49348 8.56508L5.00973 7.11258C4.90369 6.79305 4.7245 6.50269 4.48643 6.26463C4.24837 6.02657 3.95802 5.84738 3.63848 5.74133L2.18598 5.25758C2.13185 5.23966 2.08475 5.20513 2.05136 5.1589C2.01797 5.11268 2 5.0571 2 5.00008C2 4.94306 2.01797 4.88749 2.05136 4.84126C2.08475 4.79504 2.13185 4.76051 2.18598 4.74258L3.63848 4.25883C3.95802 4.15278 4.24837 3.97359 4.48643 3.73553C4.7245 3.49747 4.90369 3.20711 5.00973 2.88758L5.49348 1.43508ZM14.3297 0.123831C14.3421 0.0882393 14.3652 0.0573763 14.3959 0.0355334C14.4266 0.0136905 14.4633 0.00195312 14.501 0.00195312C14.5387 0.00195313 14.5754 0.0136905 14.6061 0.0355334C14.6368 0.0573763 14.6599 0.0882393 14.6722 0.123831L14.9947 1.09133C15.1385 1.52383 15.4772 1.86258 15.9097 2.00633L16.8772 2.32883C16.9128 2.34117 16.9437 2.36429 16.9655 2.39499C16.9874 2.42568 16.9991 2.46241 16.9991 2.50008C16.9991 2.53775 16.9874 2.57449 16.9655 2.60518C16.9437 2.63587 16.9128 2.65899 16.8772 2.67133L15.9097 2.99383C15.6968 3.06508 15.5033 3.18482 15.3445 3.3436C15.1857 3.50239 15.066 3.69588 14.9947 3.90883L14.6722 4.87633C14.6599 4.91192 14.6368 4.94279 14.6061 4.96463C14.5754 4.98647 14.5387 4.99821 14.501 4.99821C14.4633 4.99821 14.4266 4.98647 14.3959 4.96463C14.3652 4.94279 14.3421 4.91192 14.3297 4.87633L14.0072 3.90883C13.936 3.69588 13.8162 3.50239 13.6575 3.3436C13.4987 3.18482 13.3052 3.06508 13.0922 2.99383L12.126 2.67133C12.0904 2.65899 12.0595 2.63587 12.0377 2.60518C12.0158 2.57449 12.0041 2.53775 12.0041 2.50008C12.0041 2.46241 12.0158 2.42568 12.0377 2.39499C12.0595 2.36429 12.0904 2.34117 12.126 2.32883L13.0935 2.00633C13.526 1.86258 13.8647 1.52383 14.0085 1.09133L14.3297 0.123831Z" fill="#67738B"/>
</g>
<defs>
<clipPath id="clip0_2016_2035">
<rect width="20" height="20" fill="white"/>
</clipPath>
</defs>
</svg>
