<svg width="20" height="20" viewBox="0 0 20 20" fill="none" xmlns="http://www.w3.org/2000/svg">
<path d="M12.4978 18.3289C12.2391 18.3239 12.0292 18.114 12.0292 17.8603C12.0292 17.6023 12.2398 17.3917 12.4978 17.3917C12.4984 17.3917 12.5016 17.3917 12.5022 17.3917C16.1174 17.3917 19.0603 14.4501 19.0628 10.8349C19.0646 7.21718 16.1236 4.27241 12.5059 4.27054C9.94793 4.27054 7.6586 5.73074 6.57517 8.01945H10.1547C10.4134 8.01945 10.6234 8.22938 10.6234 8.48806C10.6234 8.74673 10.4134 8.95667 10.1547 8.95667H5.46861C5.21056 8.95667 5 8.74673 5 8.48806V3.80193C5 3.54325 5.20994 3.33331 5.46861 3.33331C5.72729 3.33331 5.93723 3.54325 5.93723 3.80193V7.21406C7.24185 4.85724 9.76361 3.33331 12.5022 3.33331C16.641 3.33581 20.0025 6.70108 20 10.8355C19.9975 14.9674 16.6341 18.3289 12.5022 18.3289C12.5009 18.3289 12.4991 18.3289 12.4978 18.3289Z" fill="white"/>
</svg>
