<svg width="20" height="20" viewBox="0 0 20 20" fill="none" xmlns="http://www.w3.org/2000/svg">
<path fill-rule="evenodd" clip-rule="evenodd" d="M8.44461 2.40037C7.24909 2.40037 6.08042 2.75489 5.08639 3.4191C4.09236 4.08331 3.31762 5.02737 2.86015 6.1319C2.40267 7.23643 2.28301 8.45181 2.51629 9.62435C2.74958 10.7969 3.32533 11.8739 4.17073 12.7192C5.01614 13.5645 6.09323 14.1402 7.26579 14.3733C8.43836 14.6065 9.65373 14.4867 10.7582 14.0291C11.8627 13.5715 12.8067 12.7966 13.4708 11.8025C14.1349 10.8084 14.4893 9.63973 14.4891 8.44422C14.4889 6.84123 13.852 5.30395 12.7185 4.17053C11.5849 3.03711 10.0476 2.40037 8.44461 2.40037ZM4.64193 2.75393C5.76752 2.00181 7.09086 1.60037 8.44461 1.60037C10.2598 1.60037 12.0006 2.32138 13.2841 3.60482C14.5677 4.88825 15.2889 6.62898 15.2891 8.44413C15.2893 9.79788 14.888 11.1213 14.136 12.2469C13.384 13.3726 12.3151 14.25 11.0644 14.7682C9.81376 15.2863 8.43753 15.422 7.10978 15.158C5.78202 14.894 4.56238 14.2421 3.60508 13.2849C2.64778 12.3278 1.99583 11.1082 1.73167 9.78046C1.46751 8.45273 1.60301 7.07649 2.12104 5.82578C2.63906 4.57506 3.51634 3.50605 4.64193 2.75393Z" fill="white"/>
<path fill-rule="evenodd" clip-rule="evenodd" d="M4.80078 8.40009C4.80078 8.17918 4.97987 8.00009 5.20078 8.00009H11.6005C11.8214 8.00009 12.0005 8.17918 12.0005 8.40009C12.0005 8.62101 11.8214 8.80009 11.6005 8.80009H5.20078C4.97987 8.80009 4.80078 8.62101 4.80078 8.40009Z" fill="white"/>
<path fill-rule="evenodd" clip-rule="evenodd" d="M12.719 12.7179C12.8752 12.5617 13.1285 12.5617 13.2847 12.7179L18.2828 17.7168C18.439 17.8731 18.439 18.1263 18.2828 18.2825C18.1266 18.4387 17.8733 18.4387 17.7171 18.2825L12.7189 13.2836C12.5627 13.1274 12.5628 12.8741 12.719 12.7179Z" fill="white"/>
</svg>
