<svg width="20" height="20" viewBox="0 0 20 20" fill="none" xmlns="http://www.w3.org/2000/svg">
<path d="M9.99781 17.4978C5.86589 17.4978 2.5025 14.1363 2.5 10.0044C2.49875 8.00494 3.27852 6.12236 4.69561 4.7034C6.1127 3.28506 7.99402 2.50342 9.99344 2.50217C12.7358 2.50217 15.2582 4.02547 16.5628 6.38228V2.97078C16.5628 2.71211 16.7727 2.50217 17.0314 2.50217C17.2901 2.50217 17.5 2.71211 17.5 2.97078V7.65691C17.5 7.91559 17.2901 8.12553 17.0314 8.12553H12.3453C12.0866 8.12553 11.8766 7.91559 11.8766 7.65691C11.8766 7.39824 12.0866 7.1883 12.3453 7.1883H15.9248C14.8414 4.89959 12.5527 3.43939 9.99781 3.43939C8.24458 3.44064 6.59818 4.12482 5.35854 5.36571C4.1189 6.60722 3.4366 8.25424 3.43723 10.0037C3.4391 13.6189 6.38262 16.5606 9.99781 16.5606C10.2602 16.5606 10.4708 16.7705 10.4708 17.0292C10.4708 17.2872 10.259 17.4978 9.99781 17.4978Z" fill="white"/>
</svg>
