<svg width="20" height="20" viewBox="0 0 20 20" fill="none" xmlns="http://www.w3.org/2000/svg">
<path fill-rule="evenodd" clip-rule="evenodd" d="M8.44516 2.40037C7.24961 2.40024 6.08087 2.75465 5.08675 3.41878C4.09264 4.08291 3.31779 5.02692 2.86022 6.13144C2.40264 7.23596 2.28288 8.45136 2.51609 9.62394C2.7493 10.7965 3.32499 11.8736 4.17037 12.719C5.01575 13.5644 6.09284 14.1401 7.26543 14.3733C8.43801 14.6065 9.65341 14.4867 10.7579 14.0292C11.8624 13.5716 12.8065 12.7967 13.4706 11.8026C14.1347 10.8085 14.4891 9.63976 14.489 8.44422C14.4888 6.84134 13.852 5.30417 12.7186 4.17077C11.5852 3.03737 10.048 2.40055 8.44516 2.40037ZM4.64235 2.75357C5.76804 2.00154 7.09146 1.60022 8.44524 1.60037C10.2603 1.60057 12.0009 2.32167 13.2843 3.60508C14.5677 4.88849 15.2888 6.62911 15.289 8.44413C15.2891 9.79791 14.8878 11.1213 14.1358 12.247C13.3838 13.3727 12.3148 14.2501 11.0641 14.7682C9.81342 15.2864 8.43715 15.422 7.10938 15.1579C5.7816 14.8938 4.56196 14.2419 3.60469 13.2847C2.64742 12.3274 1.99553 11.1078 1.73146 9.77999C1.46738 8.45222 1.60299 7.07595 2.12113 5.82525C2.63927 4.57455 3.51666 3.50559 4.64235 2.75357Z" fill="white"/>
<path fill-rule="evenodd" clip-rule="evenodd" d="M4.80054 8.40009C4.80054 8.17918 4.97962 8.00009 5.20054 8.00009H11.6002C11.8212 8.00009 12.0002 8.17918 12.0002 8.40009C12.0002 8.62101 11.8212 8.80009 11.6002 8.80009H5.20054C4.97962 8.80009 4.80054 8.62101 4.80054 8.40009Z" fill="white"/>
<path fill-rule="evenodd" clip-rule="evenodd" d="M8.40043 4.80023C8.62134 4.80023 8.80043 4.97932 8.80043 5.20023V11.5999C8.80043 11.8209 8.62134 11.9999 8.40043 11.9999C8.17951 11.9999 8.00043 11.8209 8.00043 11.5999V5.20023C8.00043 4.97932 8.17951 4.80023 8.40043 4.80023Z" fill="white"/>
<path fill-rule="evenodd" clip-rule="evenodd" d="M12.719 12.7179C12.8752 12.5617 13.1285 12.5617 13.2847 12.7179L18.2828 17.7168C18.439 17.8731 18.439 18.1263 18.2828 18.2825C18.1266 18.4387 17.8733 18.4387 17.7171 18.2825L12.7189 13.2836C12.5627 13.1274 12.5628 12.8741 12.719 12.7179Z" fill="white"/>
</svg>

