<svg width="136" height="28" viewBox="0 0 136 28" fill="none" xmlns="http://www.w3.org/2000/svg">
<mask id="mask0_2761_2428" style="mask-type:alpha" maskUnits="userSpaceOnUse" x="0" y="2" width="24" height="24">
<rect y="2" width="24" height="24" fill="#D9D9D9"/>
</mask>
<g mask="url(#mask0_2761_2428)">
<path d="M7.11543 19.1153C6.86478 19.1153 6.65468 19.0305 6.48513 18.861C6.31558 18.6914 6.23081 18.4813 6.23081 18.2307V16.7307H18.6058L18.9231 17.0481V7.99998H20.4231C20.6737 7.99998 20.8838 8.08475 21.0534 8.2543C21.2229 8.42385 21.3077 8.63394 21.3077 8.88458V20.4691C21.3077 20.8722 21.1228 21.1522 20.7529 21.309C20.383 21.4657 20.0558 21.4018 19.7712 21.1172L17.7693 19.1153H7.11543ZM6.23081 14.7307L4.22891 16.7326C3.94431 17.0172 3.61707 17.0812 3.24718 16.9244C2.87732 16.7676 2.69238 16.4877 2.69238 16.0846V5.38463C2.69238 5.13398 2.77716 4.92388 2.94671 4.75433C3.11626 4.58478 3.32636 4.5 3.57701 4.5H16.0385C16.2891 4.5 16.4992 4.58478 16.6688 4.75433C16.8383 4.92388 16.9231 5.13398 16.9231 5.38463V13.8461C16.9231 14.0968 16.8383 14.3069 16.6688 14.4764C16.4992 14.646 16.2891 14.7307 16.0385 14.7307H6.23081ZM15.4231 13.2308V5.99998H4.19236V13.9231L4.88471 13.2308H15.4231Z" fill="#00A49F"/>
</g>
<path d="M50.5807 6.72C50.5807 7.05333 50.414 7.26 50.0807 7.34L49.8607 7.38L49.3007 7.48L45.4007 20H42.9807L39.8207 10.12L39.7007 9.72L39.5607 9.24L39.4407 9.72L39.3207 10.12L36.1207 20H33.7007L29.8207 7.48L29.2407 7.38L29.0207 7.34C28.6874 7.26 28.5207 7.05333 28.5207 6.72V5.54H33.9207V6.72C33.9207 7.05333 33.754 7.26 33.4207 7.34C33.3807 7.34 33.3474 7.34667 33.3207 7.36L33.1007 7.42C32.9407 7.44667 32.8274 7.47333 32.7607 7.5L34.8207 14.8L35.0007 15.5L35.1407 16.3L35.3207 15.5C35.3874 15.22 35.454 14.9867 35.5207 14.8L38.3607 6.16C38.4274 5.98667 38.534 5.84667 38.6807 5.74C38.854 5.60667 39.0407 5.54 39.2407 5.54H40.0407C40.2807 5.54 40.474 5.59333 40.6207 5.7C40.7674 5.80667 40.874 5.96 40.9407 6.16L43.7607 14.8C43.934 15.3067 44.0607 15.78 44.1407 16.22C44.194 15.9133 44.2407 15.6667 44.2807 15.48C44.3207 15.2533 44.374 15.0267 44.4407 14.8L46.5007 7.52L45.6807 7.34C45.3474 7.26 45.1807 7.05333 45.1807 6.72V5.54H50.5807V6.72ZM56.117 9.58C56.7703 9.58 57.3636 9.68 57.897 9.88C58.4036 10.0667 58.8703 10.3733 59.297 10.8C59.6836 11.1867 59.9903 11.6733 60.217 12.26C60.4436 12.86 60.557 13.5133 60.557 14.22C60.557 14.38 60.5436 14.54 60.517 14.7C60.4903 14.8467 60.4636 14.94 60.437 14.98C60.4103 15.0467 60.3503 15.1 60.257 15.14C60.2036 15.1667 60.1103 15.18 59.977 15.18H53.637C53.717 16.2333 54.0036 17.0067 54.497 17.5C54.9903 17.9933 55.6436 18.24 56.457 18.24C56.8703 18.24 57.2103 18.1933 57.477 18.1C57.7703 18.0067 58.0236 17.9 58.237 17.78C58.3303 17.7267 58.4236 17.68 58.517 17.64C58.6236 17.5867 58.7236 17.5333 58.817 17.48C58.9636 17.3867 59.117 17.34 59.277 17.34C59.3836 17.34 59.477 17.36 59.557 17.4C59.6236 17.4267 59.6836 17.48 59.737 17.56L60.457 18.46C60.1503 18.8067 59.8436 19.08 59.537 19.28C59.177 19.5067 58.8236 19.68 58.477 19.8C58.1436 19.9067 57.7636 19.9933 57.337 20.06C57.0036 20.1133 56.6303 20.14 56.217 20.14C55.4836 20.14 54.8236 20.0267 54.237 19.8C53.6503 19.5733 53.117 19.22 52.637 18.74C52.1836 18.2867 51.8236 17.7133 51.557 17.02C51.3036 16.3533 51.177 15.56 51.177 14.64C51.177 13.9733 51.2903 13.32 51.517 12.68C51.7303 12.08 52.057 11.54 52.497 11.06C52.9103 10.6067 53.4236 10.2467 54.037 9.98C54.6503 9.71333 55.3436 9.58 56.117 9.58ZM56.157 11.34C55.4503 11.34 54.8903 11.5467 54.477 11.96C54.077 12.36 53.817 12.9333 53.697 13.68H58.337C58.337 13.4 58.2903 13.1 58.197 12.78C58.117 12.5267 57.9836 12.28 57.797 12.04C57.6236 11.8267 57.397 11.66 57.117 11.54C56.8103 11.4067 56.4903 11.34 56.157 11.34ZM72.7174 18.2C73.0508 18.28 73.2174 18.4867 73.2174 18.82V20H69.2374V13.48C69.2374 12.8667 69.0908 12.38 68.7974 12.02C68.5174 11.6733 68.0841 11.5 67.4974 11.5C67.0708 11.5 66.6708 11.6 66.2974 11.8C65.8974 12.0133 65.5441 12.2733 65.2374 12.58V18.02L65.8174 18.12L66.1174 18.18L66.2374 18.2C66.5708 18.28 66.7374 18.4867 66.7374 18.82V20H61.2574V18.82C61.2574 18.4867 61.4241 18.28 61.7574 18.2L61.8774 18.18L62.1774 18.12L62.7574 18.02V11.72L62.1774 11.62C62.1108 11.6067 62.0508 11.5933 61.9974 11.58C61.9574 11.5667 61.9174 11.56 61.8774 11.56L61.7574 11.54C61.4241 11.46 61.2574 11.2533 61.2574 10.92V9.74H64.2774C64.5841 9.74 64.7908 9.89333 64.8974 10.2L65.0774 11C65.2641 10.7867 65.4774 10.5933 65.7174 10.42C65.9041 10.2733 66.1508 10.1267 66.4574 9.98C66.8041 9.82 67.0774 9.72 67.2774 9.68C67.6108 9.61333 67.9308 9.58 68.2374 9.58C68.8241 9.58 69.3241 9.67333 69.7374 9.86C70.1241 10.02 70.4841 10.2867 70.8174 10.66C71.0974 10.9933 71.3174 11.4067 71.4774 11.9C71.6241 12.34 71.6974 12.8667 71.6974 13.48V18.02L72.2974 18.12C72.3641 18.1333 72.4174 18.1467 72.4574 18.16C72.5108 18.1733 72.5574 18.18 72.5974 18.18L72.7174 18.2ZM78.2923 6.74C78.2923 6.92667 78.2456 7.12667 78.1523 7.34C78.0723 7.52667 77.9589 7.69333 77.8123 7.84C77.6523 8 77.4856 8.11333 77.3123 8.18C77.1123 8.26 76.9056 8.3 76.6923 8.3C76.4789 8.3 76.2723 8.26 76.0723 8.18C75.9123 8.11333 75.7523 8 75.5923 7.84C75.4456 7.69333 75.3323 7.52667 75.2523 7.34C75.1723 7.15333 75.1323 6.95333 75.1323 6.74C75.1323 6.52667 75.1723 6.32 75.2523 6.12C75.3189 5.94667 75.4323 5.78 75.5923 5.62C75.7389 5.47333 75.8989 5.36667 76.0723 5.3C76.3123 5.20667 76.5189 5.16 76.6923 5.16C76.8656 5.16 77.0723 5.20667 77.3123 5.3C77.5123 5.38 77.6789 5.48667 77.8123 5.62C77.9723 5.78 78.0856 5.94667 78.1523 6.12C78.2456 6.34667 78.2923 6.55333 78.2923 6.74ZM78.9323 18.2C79.2656 18.28 79.4323 18.4867 79.4323 18.82V20H73.9323V18.82C73.9323 18.4867 74.0989 18.28 74.4323 18.2L74.5523 18.18L74.8523 18.12L75.4523 18.02V11.72L74.8523 11.62C74.7856 11.6067 74.7256 11.5933 74.6723 11.58C74.6323 11.5667 74.5923 11.56 74.5523 11.56L74.4323 11.54C74.0989 11.46 73.9323 11.2533 73.9323 10.92V9.74H77.9123V18.02L78.5123 18.12C78.5789 18.1333 78.6323 18.1467 78.6723 18.16C78.7256 18.1733 78.7723 18.18 78.8123 18.18L78.9323 18.2ZM95.4726 10.1C95.2326 10.1 95.0792 9.98 95.0126 9.74C94.9726 9.56667 94.9126 9.03333 94.8326 8.14C93.7792 7.83333 92.8592 7.68 92.0726 7.68C91.3659 7.68 90.7392 7.79333 90.1926 8.02C89.6192 8.26 89.1326 8.6 88.7326 9.04C88.3192 9.49333 87.9992 10.0267 87.7726 10.64C87.5326 11.28 87.4126 11.9933 87.4126 12.78C87.4126 13.58 87.5326 14.3 87.7726 14.94C88.0259 15.6067 88.3326 16.14 88.6926 16.54C89.0792 16.9667 89.5459 17.3 90.0926 17.54C90.5992 17.7667 91.1726 17.88 91.8126 17.88C92.1859 17.88 92.5192 17.86 92.8126 17.82C93.1192 17.78 93.3926 17.72 93.6326 17.64C93.8592 17.56 94.0926 17.4467 94.3326 17.3C94.5326 17.18 94.7526 17.0067 94.9926 16.78C95.0326 16.74 95.1059 16.6933 95.2126 16.64C95.2659 16.6133 95.3459 16.6 95.4526 16.6C95.6126 16.6 95.7392 16.6533 95.8326 16.76L96.8926 17.92C96.3059 18.6533 95.5859 19.2067 94.7326 19.58C93.8526 19.9667 92.8192 20.16 91.6326 20.16C90.6059 20.16 89.6459 19.9733 88.7526 19.6C87.8726 19.2267 87.1392 18.72 86.5526 18.08C85.9259 17.4 85.4592 16.62 85.1526 15.74C84.8326 14.8333 84.6726 13.8467 84.6726 12.78C84.6726 11.6733 84.8526 10.6733 85.2126 9.78C85.5726 8.88667 86.0792 8.11333 86.7326 7.46C87.4126 6.78 88.1926 6.26667 89.0726 5.92C89.9792 5.56 90.9859 5.38 92.0926 5.38C93.3192 5.38 94.8326 5.72667 96.6326 6.42V10.1H95.4726ZM108.967 18.2C109.3 18.28 109.467 18.4867 109.467 18.82V20H105.487V13.48C105.487 12.84 105.34 12.3533 105.047 12.02C104.767 11.6733 104.334 11.5 103.747 11.5C103.334 11.5 102.934 11.6 102.547 11.8C102.147 12.0133 101.794 12.2733 101.487 12.58V18.02L102.087 18.12C102.154 18.1333 102.207 18.1467 102.247 18.16C102.3 18.1733 102.347 18.18 102.387 18.18L102.507 18.2C102.84 18.28 103.007 18.4867 103.007 18.82V20H97.507V18.82C97.507 18.4867 97.6736 18.28 98.007 18.2L98.127 18.18C98.167 18.18 98.207 18.1733 98.247 18.16C98.3003 18.1467 98.3603 18.1333 98.427 18.12L99.027 18.02V7.12L98.427 7.02C98.3603 7.00667 98.3003 6.99333 98.247 6.98C98.207 6.96667 98.167 6.96 98.127 6.96L98.007 6.94C97.6736 6.86 97.507 6.65333 97.507 6.32V5.14H101.487V10.86C101.874 10.5 102.314 10.1933 102.807 9.94C103.287 9.7 103.854 9.58 104.507 9.58C105.04 9.58 105.534 9.67333 105.987 9.86C106.374 10.02 106.734 10.2867 107.067 10.66C107.347 10.9933 107.567 11.4067 107.727 11.9C107.887 12.4467 107.967 12.9667 107.967 13.46V18.02L108.547 18.12L108.847 18.18L108.967 18.2ZM119.382 18.18C119.716 18.26 119.882 18.4667 119.882 18.8V19.98H117.522C117.269 19.98 117.082 19.9467 116.962 19.88C116.829 19.8267 116.729 19.68 116.662 19.44L116.442 18.72C116.176 18.9733 115.922 19.18 115.682 19.34C115.496 19.4733 115.236 19.62 114.902 19.78C114.662 19.8867 114.382 19.9733 114.062 20.04C113.729 20.1067 113.396 20.14 113.062 20.14C112.622 20.14 112.222 20.08 111.862 19.96C111.476 19.8267 111.162 19.6533 110.922 19.44C110.642 19.1867 110.436 18.8933 110.302 18.56C110.156 18.2 110.082 17.8 110.082 17.36C110.082 16.96 110.182 16.5733 110.382 16.2C110.582 15.8133 110.922 15.4733 111.402 15.18C111.909 14.86 112.536 14.6067 113.282 14.42C114.069 14.22 115.049 14.12 116.222 14.12V13.52C116.222 12.8533 116.076 12.34 115.782 11.98C115.502 11.6467 115.082 11.48 114.522 11.48C114.096 11.48 113.762 11.5267 113.522 11.62C113.216 11.74 112.982 11.8467 112.822 11.94L112.282 12.24C112.136 12.3333 111.956 12.38 111.742 12.38C111.569 12.38 111.422 12.34 111.302 12.26C111.222 12.2067 111.129 12.1 111.022 11.94L110.562 11.16C111.762 10.0667 113.182 9.52 114.822 9.52C115.422 9.52 115.962 9.62 116.442 9.82C116.909 10.02 117.302 10.2933 117.622 10.64C117.982 11.0533 118.236 11.4733 118.382 11.9C118.542 12.38 118.622 12.9133 118.622 13.5V18.04L119.162 18.14L119.382 18.18ZM116.222 15.62C115.476 15.62 114.876 15.6667 114.422 15.76C113.929 15.8667 113.536 15.9867 113.242 16.12C112.949 16.2533 112.742 16.4133 112.622 16.6C112.502 16.7733 112.442 16.98 112.442 17.22C112.442 17.6733 112.569 17.9867 112.822 18.16C113.089 18.3467 113.422 18.44 113.822 18.44C114.076 18.44 114.309 18.42 114.522 18.38C114.749 18.34 114.956 18.2667 115.142 18.16C115.382 18.0267 115.562 17.9133 115.682 17.82C115.869 17.6733 116.049 17.5133 116.222 17.34V15.62ZM124.812 20.16C123.919 20.16 123.232 19.9067 122.752 19.4C122.272 18.8933 122.032 18.2 122.032 17.32V11.6H120.992C120.885 11.6 120.772 11.5533 120.652 11.46C120.545 11.38 120.492 11.2533 120.492 11.08V10.08L122.152 9.82L122.672 7.02C122.685 6.9 122.745 6.8 122.852 6.72C122.959 6.64 123.085 6.6 123.232 6.6H124.512V9.84H127.212V11.6H124.512V17.16C124.512 17.4667 124.592 17.7133 124.752 17.9C124.912 18.0733 125.125 18.16 125.392 18.16C125.579 18.16 125.705 18.1467 125.772 18.12L126.032 18L126.252 17.88C126.292 17.8533 126.345 17.84 126.412 17.84C126.519 17.84 126.585 17.8533 126.612 17.88L126.752 18.04L127.492 19.24C127.145 19.52 126.732 19.7467 126.252 19.92C125.799 20.08 125.319 20.16 124.812 20.16ZM135.292 15.68C135.439 16 135.512 16.3533 135.512 16.74C135.512 17.22 135.419 17.68 135.232 18.12C135.046 18.5333 134.786 18.8933 134.452 19.2C134.092 19.52 133.666 19.7533 133.172 19.9C132.692 20.0733 132.106 20.16 131.412 20.16C130.812 20.16 130.219 20.1067 129.632 20C129.059 19.8933 128.566 19.76 128.152 19.6V16.7H129.312C129.552 16.7 129.706 16.8267 129.772 17.08C129.799 17.2267 129.846 17.62 129.912 18.26C130.272 18.3667 130.812 18.42 131.532 18.42C131.812 18.42 132.066 18.3867 132.292 18.32C132.519 18.24 132.692 18.1467 132.812 18.04C132.972 17.9067 133.072 17.78 133.112 17.66C133.166 17.5133 133.192 17.3533 133.192 17.18C133.192 16.94 133.126 16.7467 132.992 16.6C132.872 16.4667 132.679 16.3333 132.412 16.2C132.159 16.08 131.892 15.98 131.612 15.9L130.672 15.6C130.459 15.5333 130.152 15.4067 129.752 15.22C129.432 15.0733 129.159 14.8933 128.932 14.68C128.692 14.4667 128.506 14.2 128.372 13.88C128.226 13.5467 128.152 13.16 128.152 12.72C128.152 12.2933 128.232 11.8933 128.392 11.52C128.552 11.1467 128.799 10.8133 129.132 10.52C129.466 10.2267 129.872 10 130.352 9.84C130.872 9.66667 131.426 9.58 132.012 9.58C132.519 9.58 132.966 9.62 133.352 9.7C133.739 9.76667 134.292 9.90667 135.012 10.12H134.992V13.02H133.852C133.612 13.02 133.459 12.8933 133.392 12.64C133.352 12.4667 133.306 12.0933 133.252 11.52C132.946 11.4267 132.546 11.38 132.052 11.38C131.572 11.38 131.192 11.48 130.912 11.68C130.632 11.88 130.492 12.1533 130.492 12.5C130.492 12.7 130.566 12.8867 130.712 13.06C130.819 13.18 131.006 13.3067 131.272 13.44C131.579 13.5867 131.846 13.6933 132.072 13.76C132.179 13.7867 132.486 13.88 132.992 14.04C133.246 14.12 133.559 14.2467 133.932 14.42C134.252 14.5667 134.519 14.74 134.732 14.94C134.972 15.14 135.159 15.3867 135.292 15.68Z" fill="#00A49F"/>
</svg>
