<svg width="24" height="25" viewBox="0 0 24 25" fill="none" xmlns="http://www.w3.org/2000/svg">
<path d="M21.1484 7.46549C21.0297 7.3947 20.8946 7.3552 20.7559 7.3508C20.6173 7.3464 20.4798 7.37725 20.3568 7.44037C20.3238 7.45726 20.2921 7.47641 20.2619 7.49768L20.2571 7.50239C20.1882 7.55153 20.1236 7.60642 20.0642 7.66646C19.5907 8.13042 18.8279 8.89818 18.3567 9.36371C18.3232 9.39759 18.2876 9.42932 18.2499 9.45869L18.2372 9.46811C18.202 9.44508 18.1692 9.4188 18.1391 9.38961C18.0323 9.2852 17.9271 9.18001 17.8203 9.0756C17.7342 8.99003 17.6489 8.90446 17.562 8.81968L17.275 8.53706C16.9777 8.24424 16.6803 7.95064 16.3798 7.66096L16.3686 7.65233C16.2932 7.55852 16.1971 7.48279 16.0876 7.43085C15.9781 7.3789 15.858 7.3521 15.7365 7.35245H15.7277C15.6018 7.35437 15.478 7.38472 15.3658 7.44115C15.3329 7.45804 15.3012 7.47719 15.271 7.49846L15.2654 7.50317C15.1969 7.55226 15.1326 7.60688 15.0733 7.66646C14.8549 7.87999 14.5751 8.15868 14.2913 8.44207L13.3347 9.38412C13.305 9.41386 13.2733 9.44166 13.2398 9.46733C13.2064 9.44426 13.1755 9.41796 13.1474 9.38883C13.0406 9.28442 12.9353 9.17922 12.8285 9.07481L12.5702 8.81889L12.2833 8.53628C11.9859 8.24346 11.6886 7.94986 11.3873 7.66018C11.25 7.51615 11.0725 7.41536 10.8771 7.3705C10.8619 7.3705 10.846 7.3705 10.8309 7.36501C10.8029 7.36011 10.7747 7.3567 10.7464 7.3548C10.744 7.35441 10.7416 7.35441 10.7392 7.3548H10.7248C10.7153 7.3548 10.7057 7.3548 10.6953 7.3548C10.6826 7.354 10.6698 7.354 10.6571 7.3548H10.6515H10.6316C10.6096 7.35699 10.5878 7.3604 10.5662 7.36501C10.5511 7.36501 10.5367 7.37443 10.5216 7.37835C10.3739 7.4239 10.2399 7.50482 10.1318 7.61386C9.98349 7.75752 9.8129 7.92788 9.63354 8.10294C9.26951 8.46615 8.90149 8.82831 8.52949 9.18943L8.27201 9.44221C8.26216 9.45117 8.25177 9.45956 8.24092 9.46733L8.22896 9.45869C8.20718 9.44387 8.18665 9.42733 8.16758 9.40924C8.13251 9.37784 8.09823 9.34329 8.06475 9.30954L7.51711 8.76865C7.13979 8.39497 6.76168 8.0226 6.38277 7.65154C6.16674 7.44115 5.93716 7.34303 5.7036 7.35009C5.69059 7.34929 5.67754 7.34929 5.66454 7.35009H5.65975H5.63983C5.61786 7.35228 5.59604 7.35569 5.57446 7.3603C5.55931 7.3603 5.54497 7.36972 5.52982 7.37364C5.38195 7.41934 5.24779 7.50023 5.13922 7.60915C4.99174 7.75281 4.82036 7.92317 4.6418 8.09823C4.27458 8.45934 3.90709 8.82046 3.53934 9.18158L3.0204 9.69263C2.97235 9.73849 2.92785 9.78783 2.88727 9.84022L2.69277 10.0326C2.54171 10.1702 2.44937 10.3593 2.4344 10.5614C2.41943 10.7636 2.48295 10.9638 2.61213 11.1216C2.7413 11.2795 2.92649 11.3831 3.13027 11.4116C3.33405 11.4401 3.54123 11.3914 3.70993 11.2753L3.71471 11.2706C3.78368 11.2214 3.84822 11.1665 3.90762 11.1065C4.38432 10.6496 5.14559 9.88261 5.61751 9.41709C5.65127 9.38323 5.68693 9.35125 5.72432 9.32131L5.73947 9.31503C5.77481 9.3378 5.80767 9.36411 5.83752 9.39354C5.94434 9.49716 6.04956 9.60236 6.15638 9.70755C6.24247 9.79312 6.32777 9.87869 6.41465 9.96426L6.70163 10.2469C6.99896 10.5397 7.2963 10.8325 7.59683 11.1222L7.60799 11.1316C7.68387 11.2249 7.78024 11.3001 7.88986 11.3515C7.99949 11.4029 8.11951 11.4292 8.24092 11.4283H8.24969C8.37481 11.4267 8.49785 11.3966 8.6092 11.3404C8.64215 11.3235 8.67385 11.3044 8.70407 11.2831L8.70885 11.2784C8.77781 11.2293 8.84235 11.1744 8.90176 11.1143C9.11938 10.9008 9.39918 10.6221 9.68296 10.3395L10.6395 9.39746C10.6693 9.36798 10.701 9.34045 10.7344 9.31503C10.7676 9.33831 10.7986 9.36459 10.8269 9.39354C10.9337 9.49716 11.0389 9.60236 11.1457 9.70755C11.2318 9.79312 11.3171 9.87869 11.404 9.96426L11.691 10.2469C11.9883 10.5397 12.2857 10.8325 12.5862 11.1222C12.7239 11.2663 12.9016 11.3673 13.0972 11.4126C13.1123 11.4126 13.1282 11.4126 13.1434 11.4181C13.1713 11.4229 13.1996 11.426 13.2279 11.4276H13.2327H13.2478C13.2574 11.4276 13.2669 11.4276 13.2765 11.4276H13.3156H13.3211H13.3411C13.363 11.4253 13.3848 11.4218 13.4064 11.4174C13.4216 11.4174 13.4359 11.4079 13.4511 11.404C13.5986 11.358 13.7324 11.2771 13.8409 11.1685C13.9884 11.0248 14.1597 10.8545 14.3375 10.6802C14.7058 10.3191 15.0738 9.95771 15.4416 9.59608L15.699 9.34251C15.7102 9.33309 15.7214 9.32367 15.7293 9.31817C15.7338 9.3205 15.738 9.32313 15.7421 9.32602C15.7637 9.34077 15.7842 9.35704 15.8035 9.3747C15.8385 9.40688 15.8728 9.44064 15.9063 9.47439L16.4539 10.0161C16.8313 10.3892 17.2094 10.7613 17.5883 11.1324C17.8035 11.3428 18.0339 11.4417 18.2675 11.4346H18.3057H18.3113H18.3312C18.3532 11.4324 18.375 11.429 18.3966 11.4244C18.4117 11.4244 18.4261 11.415 18.4412 11.4111C18.5888 11.3652 18.7227 11.2844 18.831 11.1756C18.9793 11.0319 19.1499 10.8616 19.3277 10.6873C19.6959 10.3262 20.064 9.96478 20.4317 9.60314L20.9515 9.07952C20.9993 9.03317 21.0438 8.98359 21.0846 8.93115L21.2791 8.7396C21.3717 8.65524 21.4431 8.55085 21.4878 8.43466C21.5324 8.31848 21.5491 8.19366 21.5364 8.07006C21.5237 7.94646 21.4821 7.82745 21.4147 7.7224C21.3474 7.61735 21.2562 7.52914 21.1484 7.46471V7.46549Z" fill="#009E96"/>
<path d="M21.1483 18.1711C21.0297 18.2419 20.8945 18.2814 20.7559 18.2858C20.6172 18.2902 20.4798 18.2593 20.3568 18.1962C20.3238 18.1793 20.2921 18.1602 20.2619 18.1389L20.2571 18.1342C20.1882 18.085 20.1236 18.0302 20.0642 17.9701C19.5907 17.5062 18.8278 16.7384 18.3567 16.2729C18.323 16.239 18.2873 16.207 18.2499 16.1771L18.2372 16.1677C18.2018 16.1904 18.169 16.2168 18.1391 16.2462C18.0323 16.3506 17.9271 16.4558 17.8202 16.5602C17.7341 16.6458 17.6489 16.7321 17.562 16.8169L17.275 17.0995C16.9777 17.3923 16.6803 17.6859 16.3798 17.9756L16.3686 17.9842C16.2928 18.0776 16.1964 18.1528 16.0868 18.2042C15.9771 18.2556 15.8571 18.2818 15.7357 18.281H15.7269C15.601 18.2791 15.4772 18.2487 15.365 18.1923C15.3321 18.1754 15.3004 18.1562 15.2702 18.135L15.2646 18.1303C15.196 18.0809 15.1318 18.026 15.0725 17.9662C14.8541 17.7527 14.5743 17.474 14.2905 17.1906L13.3339 16.2485C13.3041 16.2188 13.2725 16.191 13.239 16.1653C13.2056 16.1884 13.1747 16.2147 13.1466 16.2438C13.0397 16.3482 12.9345 16.4534 12.8277 16.5578L12.5694 16.8145L12.2825 17.0972C11.9851 17.39 11.6878 17.6836 11.3865 17.9733C11.2489 18.117 11.0715 18.2178 10.8763 18.2629C10.8611 18.2629 10.8452 18.2629 10.83 18.2684C10.8014 18.2684 10.7734 18.2778 10.7456 18.2786H10.7384H10.724C10.7145 18.2786 10.7049 18.2786 10.6945 18.2786H10.6563H10.6507H10.6308C10.6088 18.2764 10.587 18.273 10.5654 18.2684C10.5502 18.2684 10.5359 18.259 10.5208 18.2551C10.3732 18.2092 10.2393 18.1284 10.1309 18.0196C9.98268 17.8759 9.81209 17.7056 9.63273 17.5305L8.52948 16.4472L8.272 16.1936L8.24091 16.1692L8.22895 16.1771C8.20733 16.1918 8.18682 16.2081 8.16757 16.2258C8.1325 16.258 8.09822 16.2925 8.06474 16.3263L7.5171 16.8671C7.14005 17.24 6.763 17.6137 6.38276 17.9835C6.16673 18.1946 5.93715 18.2928 5.70359 18.2857C5.69003 18.2857 5.67728 18.2857 5.66453 18.2857H5.65974H5.63981C5.61785 18.2835 5.59602 18.2801 5.57445 18.2755C5.5593 18.2755 5.54495 18.2661 5.52981 18.2621C5.38207 18.2162 5.24798 18.1353 5.13921 18.0266C4.99173 17.883 4.82035 17.7126 4.64178 17.5376L3.53933 16.4542L3.02038 15.9432C2.97234 15.897 2.92784 15.8474 2.88726 15.7948L2.69515 15.5954C2.5441 15.4577 2.45175 15.2687 2.43678 15.0665C2.42181 14.8643 2.48533 14.6641 2.61451 14.5063C2.74368 14.3485 2.92887 14.2448 3.13265 14.2163C3.33643 14.1878 3.54361 14.2365 3.71231 14.3527L3.71709 14.3574C3.78606 14.4065 3.8506 14.4614 3.91 14.5215C4.38431 14.9862 5.14558 15.7524 5.61749 16.2234C5.65126 16.2573 5.68692 16.2893 5.72431 16.3192L5.73707 16.3286C5.77241 16.3058 5.80527 16.2795 5.83512 16.2501C5.94193 16.1457 6.04716 16.0405 6.15397 15.9361C6.24007 15.8513 6.32536 15.765 6.41225 15.6802L6.69922 15.3976C6.99656 15.1047 7.2939 14.8111 7.59442 14.5215L7.60558 14.5128C7.68146 14.4195 7.77783 14.3443 7.88746 14.2929C7.99708 14.2415 8.11711 14.2152 8.23852 14.2161H8.24729C8.37322 14.218 8.49703 14.2484 8.60919 14.3048C8.64214 14.3217 8.67384 14.3408 8.70405 14.3621L8.70884 14.3668C8.7778 14.416 8.84234 14.4708 8.90175 14.5309C9.11937 14.7444 9.39917 15.0223 9.68295 15.3057L10.6395 16.2478C10.6693 16.2775 10.701 16.3053 10.7344 16.331C10.7676 16.3077 10.7986 16.2814 10.8269 16.2525C10.9337 16.1481 11.0389 16.0429 11.1457 15.9384C11.2318 15.8537 11.3171 15.7673 11.404 15.6825L11.691 15.3999C11.9883 15.1071 12.2856 14.8135 12.5862 14.5238C12.7241 14.3802 12.9017 14.2795 13.0971 14.2341C13.1123 14.2341 13.1282 14.2341 13.1434 14.2286C13.1713 14.2237 13.1995 14.2202 13.2279 14.2184H13.2327H13.2478H13.2765C13.29 14.2184 13.3036 14.2184 13.3156 14.2184H13.3211H13.3411C13.363 14.2208 13.3848 14.2242 13.4064 14.2286C13.4216 14.2286 13.4359 14.2381 13.4511 14.242C13.5986 14.288 13.7324 14.3689 13.8409 14.4775C13.9883 14.6212 14.1597 14.7915 14.3375 14.9658C14.7058 15.3269 15.0738 15.6883 15.4416 16.0499L15.699 16.3035L15.7293 16.3278L15.7421 16.32C15.7637 16.3052 15.7842 16.289 15.8035 16.2713C15.8385 16.2391 15.8728 16.2046 15.9063 16.1708L16.4539 15.6299C16.831 15.257 17.208 14.8834 17.5883 14.5136C17.8035 14.3024 18.0339 14.2043 18.2674 14.2114H18.3057H18.3113H18.3312C18.3532 14.2136 18.375 14.217 18.3966 14.2216C18.4117 14.2216 18.4261 14.231 18.4412 14.2349C18.5888 14.2808 18.7227 14.3616 18.831 14.4704C18.9793 14.6141 19.1499 14.7844 19.3277 14.9587C19.6959 15.3198 20.0639 15.6812 20.4317 16.0429L20.9506 16.5539C20.9985 16.6003 21.0429 16.6498 21.0838 16.7023L21.2783 16.8938C21.3709 16.9782 21.4423 17.0826 21.487 17.1988C21.5316 17.315 21.5483 17.4398 21.5356 17.5634C21.5229 17.687 21.4813 17.806 21.4139 17.911C21.3466 18.0161 21.2554 18.1043 21.1475 18.1687L21.1483 18.1711Z" fill="#009E96"/>
<path d="M5.7243 13.621C6.17468 13.621 6.53978 13.2614 6.53978 12.8179C6.53978 12.3743 6.17468 12.0148 5.7243 12.0148C5.27392 12.0148 4.90881 12.3743 4.90881 12.8179C4.90881 13.2614 5.27392 13.621 5.7243 13.621Z" fill="#009E96"/>
<path d="M10.7368 13.621C11.1872 13.621 11.5523 13.2614 11.5523 12.8179C11.5523 12.3743 11.1872 12.0148 10.7368 12.0148C10.2864 12.0148 9.92133 12.3743 9.92133 12.8179C9.92133 13.2614 10.2864 13.621 10.7368 13.621Z" fill="#009E96"/>
<path d="M15.7429 13.621C16.1932 13.621 16.5583 13.2614 16.5583 12.8179C16.5583 12.3743 16.1932 12.0148 15.7429 12.0148C15.2925 12.0148 14.9274 12.3743 14.9274 12.8179C14.9274 13.2614 15.2925 13.621 15.7429 13.621Z" fill="#009E96"/>
<path d="M20.749 13.621C21.1993 13.621 21.5644 13.2614 21.5644 12.8179C21.5644 12.3743 21.1993 12.0148 20.749 12.0148C20.2986 12.0148 19.9335 12.3743 19.9335 12.8179C19.9335 13.2614 20.2986 13.621 20.749 13.621Z" fill="#009E96"/>
</svg>
