<svg xmlns="http://www.w3.org/2000/svg" width="14" height="14" viewBox="0 0 14 14" fill="none">
  <g clip-path="url(#clip0_1_639)">
    <path d="M6.69989 5.4661C6.79614 5.17735 7.20389 5.17735 7.30014 5.4661L7.86452 7.16097C7.98874 7.53355 8.19804 7.87207 8.47583 8.1497C8.75361 8.42734 9.09225 8.63645 9.46489 8.76047L11.1589 9.32485C11.4476 9.4211 11.4476 9.82885 11.1589 9.9251L9.46402 10.4895C9.09144 10.6137 8.75292 10.823 8.47529 11.1008C8.19765 11.3786 7.98854 11.7172 7.86452 12.0898L7.30014 13.7838C7.27939 13.8471 7.2392 13.9021 7.18531 13.9412C7.13141 13.9802 7.06656 14.0012 7.00002 14.0012C6.93347 14.0012 6.86862 13.9802 6.81473 13.9412C6.76083 13.9021 6.72064 13.8471 6.69989 13.7838L6.13552 12.089C6.01138 11.7165 5.80221 11.378 5.52459 11.1004C5.24696 10.8228 4.9085 10.6136 4.53602 10.4895L2.84114 9.9251C2.77791 9.90435 2.72285 9.86416 2.68382 9.81026C2.64478 9.75637 2.62377 9.69152 2.62377 9.62497C2.62377 9.55843 2.64478 9.49358 2.68382 9.43968C2.72285 9.38579 2.77791 9.3456 2.84114 9.32485L4.53602 8.76047C4.9085 8.63633 5.24696 8.42717 5.52459 8.14954C5.80221 7.87191 6.01138 7.53345 6.13552 7.16097L6.69989 5.4661ZM3.31977 1.00447C3.33231 0.966579 3.35648 0.933605 3.38884 0.910233C3.4212 0.886862 3.4601 0.874283 3.50002 0.874283C3.53993 0.874283 3.57883 0.886862 3.61119 0.910233C3.64355 0.933605 3.66772 0.966579 3.68027 1.00447L4.01889 2.02122C4.17027 2.47447 4.52552 2.82972 4.97877 2.9811L5.99552 3.31972C6.03341 3.33227 6.06638 3.35644 6.08976 3.3888C6.11313 3.42116 6.12571 3.46006 6.12571 3.49997C6.12571 3.53989 6.11313 3.57879 6.08976 3.61115C6.06638 3.6435 6.03341 3.66767 5.99552 3.68022L4.97877 4.01885C4.7551 4.09308 4.55184 4.21851 4.3852 4.38516C4.21856 4.5518 4.09313 4.75505 4.01889 4.97872L3.68027 5.99547C3.66772 6.03336 3.64355 6.06634 3.61119 6.08971C3.57883 6.11308 3.53993 6.12566 3.50002 6.12566C3.4601 6.12566 3.4212 6.11308 3.38884 6.08971C3.35648 6.06634 3.33231 6.03336 3.31977 5.99547L2.98114 4.97872C2.90691 4.75505 2.78148 4.5518 2.61483 4.38516C2.44819 4.21851 2.24494 4.09308 2.02127 4.01885L1.00452 3.68022C0.966625 3.66767 0.93365 3.6435 0.910279 3.61115C0.886908 3.57879 0.874329 3.53989 0.874329 3.49997C0.874329 3.46006 0.886908 3.42116 0.910279 3.3888C0.93365 3.35644 0.966625 3.33227 1.00452 3.31972L2.02127 2.9811C2.24494 2.90686 2.44819 2.78143 2.61483 2.61479C2.78148 2.44814 2.90691 2.24489 2.98114 2.02122L3.31977 1.00447ZM9.50514 0.0865965C9.51378 0.0616821 9.52997 0.040078 9.55145 0.0247879C9.57293 0.00949791 9.59865 0.00128174 9.62502 0.00128174C9.65139 0.00128174 9.6771 0.00949791 9.69858 0.0247879C9.72007 0.040078 9.73625 0.0616821 9.74489 0.0865965L9.97064 0.763847C10.0713 1.0666 10.3084 1.30372 10.6111 1.40435L11.2884 1.6301C11.3133 1.63873 11.3349 1.65492 11.3502 1.6764C11.3655 1.69789 11.3737 1.7236 11.3737 1.74997C11.3737 1.77634 11.3655 1.80206 11.3502 1.82354C11.3349 1.84502 11.3133 1.86121 11.2884 1.86985L10.6111 2.0956C10.4621 2.14547 10.3266 2.22929 10.2155 2.34044C10.1043 2.45159 10.0205 2.58703 9.97064 2.7361L9.74489 3.41335C9.73625 3.43826 9.72007 3.45987 9.69858 3.47516C9.6771 3.49045 9.65139 3.49866 9.62502 3.49866C9.59865 3.49866 9.57293 3.49045 9.55145 3.47516C9.52997 3.45987 9.51378 3.43826 9.50514 3.41335L9.27939 2.7361C9.22952 2.58703 9.1457 2.45159 9.03455 2.34044C8.9234 2.22929 8.78796 2.14547 8.63889 2.0956L7.96252 1.86985C7.9376 1.86121 7.916 1.84502 7.90071 1.82354C7.88542 1.80206 7.8772 1.77634 7.8772 1.74997C7.8772 1.7236 7.88542 1.69789 7.90071 1.6764C7.916 1.65492 7.9376 1.63873 7.96252 1.6301L8.63977 1.40435C8.94252 1.30372 9.17964 1.0666 9.28027 0.763847L9.50514 0.0865965Z" fill="#4E5666"/>
  </g>
  <defs>
    <clipPath id="clip0_1_639">
      <rect width="14" height="14" fill="white"/>
    </clipPath>
  </defs>
</svg>